<svg xmlns="http://www.w3.org/2000/svg" xmlns:xlink="http://www.w3.org/1999/xlink" width="328.927" height="74.338" viewBox="0 0 328.927 74.338"><defs><style>.a{fill:url(#a);}.b{fill:#00aae3;}.c{fill:#00aae2;}</style><linearGradient id="a" y1="0.501" x2="1" y2="0.501" gradientUnits="objectBoundingBox"><stop offset="0" stop-color="#fdd000"/><stop offset="0.12" stop-color="#fcce00"/><stop offset="0.226" stop-color="#fac600"/><stop offset="0.326" stop-color="#f7b900"/><stop offset="0.423" stop-color="#f3a604"/><stop offset="0.513" stop-color="#ef901c"/><stop offset="0.817" stop-color="#e7602c"/><stop offset="1" stop-color="#e34035"/></linearGradient></defs><g transform="translate(-310.898 -31.307)"><g transform="translate(310.898 31.307)"><g transform="translate(0 0)"><path class="a" d="M56.866,14.48a8.756,8.756,0,0,0-2.584-5.168,35.316,35.316,0,0,1-2.516-3.06A9.416,9.416,0,0,0,47.957,3.6a10.946,10.946,0,0,0-4.9-.816.5.5,0,0,1-.408-.136,6.975,6.975,0,0,0-3.4-1.836A17.8,17.8,0,0,0,35.445.2L31.772,0a12.008,12.008,0,0,0-4.624.748C25.788,1.219,24.36,1.491,23,1.9l1.292.816c.2-.068.34-.068.544-.136-.068.136-.136.2-.2.34l.952.612A4.074,4.074,0,0,1,27.624,1.9a9.653,9.653,0,0,1,3.944-.68c.816,0,1.632.068,2.448.136a22.355,22.355,0,0,1,3.672.34,6.342,6.342,0,0,1,3.06,1.224,2.356,2.356,0,0,1,1.02,1.7A3.056,3.056,0,0,1,41.5,6.183a.6.6,0,0,0,.272.68.572.572,0,0,0,.748-.272,4.451,4.451,0,0,0,.34-2.108c-.068-.476-.068-.476.476-.544a10.2,10.2,0,0,1,6.052,1.7A10.407,10.407,0,0,1,51.9,8.292a3.562,3.562,0,0,1,.816,2.448c-.068,1.02-.408,1.9-1.632,2.108a.967.967,0,0,0-.408.136,2.825,2.825,0,0,0-2.108,1.972,2.575,2.575,0,0,1-2.584,1.836.547.547,0,0,0-.612.408.575.575,0,0,0,.408.68,1.674,1.674,0,0,0,.816.068,3.867,3.867,0,0,0,3.2-2.788,1.377,1.377,0,0,1,.884-.952,6.685,6.685,0,0,1,1.088-.34A2.61,2.61,0,0,0,53.6,12.236a4.735,4.735,0,0,0,.34-1.7,7.554,7.554,0,0,1,1.7,3.06,3.6,3.6,0,0,1-.136,2.788c-.34.816-.748,1.5-1.768,1.632a4.49,4.49,0,0,1-.952.068,2.921,2.921,0,0,0-2.856,2.448.646.646,0,0,0,.408.68.6.6,0,0,0,.68-.34,4.687,4.687,0,0,0,.2-.544,1.635,1.635,0,0,1,1.292-1.088,10.886,10.886,0,0,0,1.564-.2c.136,0,.2,0,.2.136a6.678,6.678,0,0,1-.2,2.312,6.788,6.788,0,0,1-2.244,2.924,6.02,6.02,0,0,1-4.284,1.224c-.408,0-.748-.2-1.156-.068-.2.068-.272.068-.34-.2A11.483,11.483,0,0,0,44.9,22.912c-.612-.884-1.292-1.7-1.972-2.516-.2,0-.34,0-.272-.2a3.6,3.6,0,0,0,.068-1.7,9.359,9.359,0,0,0-.816-3.808,5.246,5.246,0,0,1-.476-1.768,6.318,6.318,0,0,0-.34-1.972c-.068-.2,0-.272.2-.272.2-.068.476-.068.68-.136a2.769,2.769,0,0,1,2.924.884,5.948,5.948,0,0,1,.544.68c.272.34.612.476.884.272s.272-.544.068-.952a10.452,10.452,0,0,0-1.156-1.292,2.939,2.939,0,0,0-2.448-.816,12.631,12.631,0,0,0-2.312.408.434.434,0,0,1-.408,0,4.322,4.322,0,0,0-1.224-.408,3.579,3.579,0,0,1-2.652-2.176,5.246,5.246,0,0,1-.476-1.768.523.523,0,0,0-.68-.476.566.566,0,0,0-.408.68c.068.34.136.612.2.952a5.006,5.006,0,0,0,2.448,3.4,5.467,5.467,0,0,0,1.768.612,1.661,1.661,0,0,1,1.36,1.36,2.789,2.789,0,0,1,.068.748,7.14,7.14,0,0,0,.544,2.38,6.378,6.378,0,0,1,.68,1.9,9.164,9.164,0,0,1,.136,2.38.25.25,0,0,1-.2-.068,8.962,8.962,0,0,0-4.488-1.972c-.68-.136-1.36-.068-2.04-.2a5.551,5.551,0,0,1-2.38-1.156c-.2-.136-.2-.2,0-.408a6.46,6.46,0,0,0,1.088-1.292A4.568,4.568,0,0,0,33,9.652a10.609,10.609,0,0,0-1.9-1.564c-.34-.272-.68-.272-.884,0a.6.6,0,0,0,.2.884,11.8,11.8,0,0,1,1.7,1.428c.816,1.02,1.428,3.06-.272,4.284-.2.136-.34.2-.476,0A2.7,2.7,0,0,0,30,13.936a8.928,8.928,0,0,0-1.9-.068,1.865,1.865,0,0,1-1.428-.408c-.272-.272-.612-.34-.816-.136-.272.2-.272.544,0,.884a2.8,2.8,0,0,0,.884.68,3.842,3.842,0,0,0,1.768.136,3.3,3.3,0,0,1,1.156,0,3.489,3.489,0,0,1,1.564,1.02,13.694,13.694,0,0,0,1.972,1.5,7.04,7.04,0,0,0,3.332.748,7.357,7.357,0,0,1,3.536,1.224,14,14,0,0,1,4.148,4.556,6.05,6.05,0,0,1,.952,2.38.976.976,0,0,1-.2.952,14.205,14.205,0,0,1-6.188,3.2h-.816l.272,1.088A8.256,8.256,0,0,0,40.681,31a17.089,17.089,0,0,0,4.352-2.448,8.156,8.156,0,0,0,1.5-1.564.513.513,0,0,1,.476-.272,7.873,7.873,0,0,0,3.332-.34,7.111,7.111,0,0,0,3.128-2.108,14.085,14.085,0,0,0,1.156-1.632,4.219,4.219,0,0,0,.612-2.176c0-.544.068-1.088.068-1.564a.831.831,0,0,1,.272-.612A3.911,3.911,0,0,0,56.866,14.48Z" transform="translate(-7.359 0.015)"/><g transform="translate(0.816 2.73)"><path class="b" d="M21.261,38.138a.409.409,0,0,1-.272-.068l-12.1-2.992L1.2,23.857,6.776,11,17.385,4,18,4.952,7.66,11.752,2.492,23.721l.136.136,9.18,2.72L14.121,15.7l17,16.117a.824.824,0,0,1,.136,1.02.914.914,0,0,1-.952.408L14.869,28.685l7.276,7.48a1.368,1.368,0,0,1,.2,1.428A1.851,1.851,0,0,1,21.261,38.138ZM9.5,34.125l11.7,2.856h.068v-.068l-8.636-8.908L3.58,25.353Zm3.672-7.072,16.253,4.828L14.733,17.873,12.9,26.645Z" transform="translate(-1.2 -4)"/></g><ellipse class="b" cx="2.108" cy="2.108" rx="2.108" ry="2.108" transform="translate(9.928 23.471)"/><ellipse class="b" cx="2.108" cy="2.108" rx="2.108" ry="2.108" transform="translate(6.664 30.748)"/><ellipse class="b" cx="2.108" cy="2.108" rx="2.108" ry="2.108" transform="translate(29.037 29.66)"/><g transform="translate(20.333 34.488)"><ellipse class="b" cx="2.108" cy="2.108" rx="2.108" ry="2.108"/></g><g transform="translate(7.126 9.918)"><rect class="b" width="1.088" height="8.704" transform="translate(0 0.839) rotate(-50.441)"/></g><g transform="translate(13.604 3.105)"><rect class="b" width="13.057" height="1.088" transform="matrix(0.244, -0.97, 0.97, 0.244, 0, 12.662)"/></g><ellipse class="b" cx="2.108" cy="2.108" rx="2.108" ry="2.108" transform="translate(4.828 7.899)"/><ellipse class="b" cx="2.108" cy="2.108" rx="2.108" ry="2.108" transform="translate(0 20.411)"/><path class="b" d="M46.264,82.1C14.1,58.37,37.152,48.1,52.18,40.349c3.536-1.836,8.364-5.508,10.54-8.636,1.9-2.788,2.312-7.412,2.312-7.412.34,1.428.272,2.04.34,5.1.068,2.108-.408,4.692-.408,5.508,0,5.848,1.224,6.392,2.244,8.024.408.612,1.768,2.584,1.972,2.924,1.292,2.176,1.9,3.264,1.428,4.352a2.565,2.565,0,0,1-1.972,1.36,7.192,7.192,0,0,0-1.836.612,1.574,1.574,0,0,0-.136,1.156,2.856,2.856,0,0,1,0,2.244,3.749,3.749,0,0,1-1.156,1.156,2.515,2.515,0,0,1,.34.748,2.56,2.56,0,0,1-1.156,2.584c-.544.476-.612.612-.612.68a1.914,1.914,0,0,0,.068.544,7.631,7.631,0,0,1-.272,3.4c-1.292,4.08-4.352,3.672-7.616,3.128a26.745,26.745,0,0,0-5.916-.476,4.08,4.08,0,0,0-2.856,1.36c-2.244,2.584-1.836,7.82-1.836,7.888h0c.068.408.136,2.992.544,5.168" transform="translate(-9.61 -7.765)"/><ellipse class="b" cx="2.108" cy="2.108" rx="2.108" ry="2.108" transform="translate(15.097 1.098)"/></g><g transform="translate(9.044 35.979)"><g transform="translate(0.826 0)"><rect class="b" width="15.505" height="1.224" transform="matrix(0.81, -0.586, 0.586, 0.81, 0, 9.087)"/></g><ellipse class="b" cx="2.312" cy="2.312" rx="2.312" ry="2.312" transform="translate(0 6.534)"/></g></g><g transform="translate(399.494 53.972)"><g transform="translate(0)"><path class="c" d="M29.761.8V26.95H24.492L5.757,8.118v18.93H0V.8H6.342L24,18.754V.8Z" transform="translate(0 0.176)"/><path class="c" d="M62.429,21.974V26.95H35.4V.8H61.941V5.874H41.352v5.367H58.623v4.976H41.352v5.757Z" transform="translate(-0.858 0.176)"/><path class="c" d="M94.968.8V14.656c0,7.806-5.172,13.173-14.734,13.173-9.465,0-14.734-5.269-14.734-13.173V.8h5.952V14.168c0,5.269,3.025,8.392,8.684,8.392s8.684-3.122,8.684-8.392V.8Z" transform="translate(-1.587 0.176)"/><path class="c" d="M123.03,27.048l-7.513-8.879h-9.465v8.879H100.1V.8h18.052c6.44,0,11.221,2.927,11.221,8.684,0,4.489-2.927,7.221-7.318,8.2l8.1,9.27H123.03Zm-5.172-13.856c3.122,0,5.464-.781,5.464-3.708s-2.342-3.708-5.464-3.708H106.052v7.318h11.807Z" transform="translate(-2.426 0.176)"/><path class="c" d="M131.4,13.953C131.4,5.172,137.84,0,148.086,0s16.588,5.172,16.588,13.953-6.44,13.953-16.588,13.953C137.84,27.809,131.4,22.638,131.4,13.953Zm27.224,0c0-5.562-4.1-8.782-10.538-8.782s-10.538,3.122-10.538,8.782c0,5.562,4,8.782,10.538,8.782C154.526,22.638,158.624,19.515,158.624,13.953Z" transform="translate(-3.185 0.195)"/><path class="c" d="M212.13.8V26.95h-5.952V8.8L194.664,22.852h-.293L182.857,8.8V27.048H177.1V.8h6.538l11.026,13.856L205.69.8h6.44Z" transform="translate(-4.292 0.176)"/><path class="c" d="M245.551,19.023c0,5.172-4.879,8.782-14.148,8.782-6.635,0-12-1.854-16-5.269l3.415-4.1c3.22,2.927,7.318,4.293,12.685,4.293,5.269,0,8-.976,8-3.22,0-2.147-2.732-2.732-8.684-3.318-7.513-.683-14.441-2.244-14.441-7.9,0-5.464,5.855-8.489,13.953-8.489,5.757,0,10.636,1.464,13.953,4L240.965,8c-2.927-2.244-6.44-3.122-10.733-3.122-3.513,0-7.9.585-7.9,3.025,0,2.244,3.708,2.439,8.977,2.927C239.7,11.509,245.551,13.266,245.551,19.023Z" transform="translate(-5.22 0.2)"/></g></g></g></svg>